####
#
#	OBJ File Generated by LightWave3D
#	LightWave3D OBJ Export v2.3
#
####
o cardbox1.obj
mtllib cardbox1.mtl
g default
v -1.0 1.0 -1.0
v 1.0 1.0 -1.0
v -1.0 -1.0 -1.0
v 1.0 -1.0 -1.0
v 1.0 1.0 1.0
v -1.0 1.0 1.0
v 1.0 -1.0 1.0
v -1.0 -1.0 1.0
vt 0.018937 0.0423729
vt 0.018937 0.490496
vt 0.018937 0.509504
vt 0.018937 0.957627
vt 0.4798 0.0423729
vt 0.4798 0.490496
vt 0.4798 0.509504
vt 0.4798 0.957627
vt 0.5202 0.0423729
vt 0.5202 0.490496
vt 0.5202 0.509504
vt 0.5202 0.957627
vt 0.981063 0.0423729
vt 0.981063 0.490496
vt 0.981063 0.509504
vt 0.981063 0.957627
vn 0 0 1
vn 0 0 1
vn 0 0 1
vn 0 0 1
vn 0 0 -1
vn 0 0 -1
vn 0 0 -1
vn 0 0 -1
vn 0 -1 -0
vn 0 -1 -0
vn 0 -1 -0
vn 0 -1 -0
vn 0 1 -0
vn 0 1 -0
vn 0 1 -0
vn 0 1 -0
vn 1 0 -0
vn 1 0 -0
vn 1 0 -0
vn 1 0 -0
vn -1 0 -0
vn -1 0 -0
vn -1 0 -0
vn -1 0 -0
g cardbox1
usemtl cardbox1
s off
f 7/15/1 5/16/2 6/12/3 8/11/4
f 1/12/5 2/16/6 4/15/7 3/11/8
f 3/2/9 4/6/10 7/5/11 8/1/12
f 5/7/13 2/8/14 1/4/15 6/3/16
f 4/13/17 2/14/18 5/10/19 7/9/20
f 6/10/21 1/14/22 3/13/23 8/9/24
