# Created by Metasequoia

mtllib lobject2.mtl

v -0.500000 0.500000 5.000000
v -0.500000 -0.500000 5.000000
v 0.500000 0.500000 5.000000
v 0.500000 -0.500000 5.000000
v 0.500000 0.500000 -5.000000
v 0.500000 -0.500000 -5.000000
v -0.500000 0.500000 -5.000000
v -0.500000 -0.500000 -5.000000
v -2.500000 0.500000 5.500000
v -2.500000 -0.500000 5.500000
v 0.500000 0.500000 5.500000
v 0.500000 -0.500000 5.500000
v 0.500000 0.500000 4.500000
v 0.500000 -0.500000 4.500000
v -2.500000 0.500000 4.500000
v -2.500000 -0.500000 4.500000
# 16 vertices

vt 0.00000 1.00000
vt 1.00000 1.00000
vt 1.00000 0.00000
vt 0.00000 0.00000
# 4 texture vertices

vn 0.00000 0.00000 1.00000
vn 1.00000 0.00000 0.00000
vn 0.00000 0.00000 -1.00000
vn -1.00000 0.00000 0.00000
vn 0.00000 1.00000 0.00000
vn 0.00000 -1.00000 0.00000
# 6 normal vertices

usemtl mat1
f 2/4/1 4/3/1 3/2/1 1/1/1
f 4/4/2 6/3/2 5/2/2 3/1/2
f 6/4/3 8/3/3 7/2/3 5/1/3
f 8/4/4 2/3/4 1/2/4 7/1/4
f 1/4/5 3/3/5 5/2/5 7/1/5
f 8/4/6 6/3/6 4/2/6 2/1/6
f 10/4/1 12/3/1 11/2/1 9/1/1
f 12/4/2 14/3/2 13/2/2 11/1/2
f 14/4/3 16/3/3 15/2/3 13/1/3
f 16/4/4 10/3/4 9/2/4 15/1/4
f 9/4/5 11/3/5 13/2/5 15/1/5
f 16/4/6 14/3/6 12/2/6 10/1/6
# 12 elements

