# Created by Metasequoia

mtllib lobject.mtl

v -0.500000 0.500000 5.500000
v -0.500000 -0.500000 5.500000
v 2.500000 0.500000 5.500000
v 2.500000 -0.500000 5.500000
v 2.500000 0.500000 4.500000
v 2.500000 -0.500000 4.500000
v 0.500000 0.500000 -5.000000
v 0.500000 -0.500000 -5.000000
v -0.500000 0.500000 -5.000000
v -0.500000 -0.500000 -5.000000
v 0.500000 0.500000 4.500000
v 0.500000 -0.500000 4.500000
# 12 vertices

vt 1.00000 0.00000
vt 0.00000 0.00000
vt 0.00000 1.00000
vt 1.00000 1.00000
vt 0.66667 0.00000
vt 0.66667 1.00000
# 6 texture vertices

vn 0.00000 0.00000 1.00000
vn 1.00000 0.00000 0.00000
vn 0.00000 0.00000 -1.00000
vn -1.00000 0.00000 0.00000
vn 1.00000 0.00000 -0.00000
vn 0.00000 1.00000 0.00000
vn 0.00000 -1.00000 0.00000
# 7 normal vertices

usemtl mat1
f 3/4/1 1/3/1 2/2/1 4/1/1
f 5/4/2 3/3/2 4/2/2 6/1/2
f 9/4/3 7/3/3 8/2/3 10/1/3
f 11/6/3 5/3/3 6/2/3 12/5/3
f 10/1/4 2/2/4 1/3/4 9/4/4
f 12/5/5 8/2/5 7/3/5 11/6/5
f 1/3/6 3/4/6 5/4/6 11/6/6
f 1/3/6 11/6/6 7/3/6 9/4/6
f 4/1/7 2/2/7 12/5/7 6/1/7
f 10/1/7 8/2/7 12/5/7 2/2/7
# 10 elements

