# Created by Metasequoia

mtllib uobject.mtl

v -0.500000 0.500000 5.500000
v -0.500000 -0.500000 5.500000
v 2.500000 0.500000 5.500000
v 2.500000 -0.500000 5.500000
v 2.500000 0.500000 4.500000
v 2.500000 -0.500000 4.500000
v 0.500000 0.500000 4.500000
v 0.500000 -0.500000 4.500000
v 2.500000 0.500000 -4.500000
v 2.500000 -0.500000 -4.500000
v 2.500000 0.500000 -5.500000
v 2.500000 -0.500000 -5.500000
v -0.500000 0.500000 -5.500000
v -0.500000 -0.500000 -5.500000
v 0.500000 0.500000 -4.500000
v 0.500000 -0.500000 -4.500000
# 16 vertices

vt 0.00000 1.00000
vt 1.00000 1.00000
vt 1.00000 0.00000
vt 0.00000 0.00000
vt 0.66667 1.00000
vt 0.66667 0.00000
vt 0.03509 0.00000
vt 0.03509 1.00000
# 8 texture vertices

vn 0.00000 0.00000 1.00000
vn 1.00000 0.00000 0.00000
vn 0.00000 0.00000 -1.00000
vn 0.00000 1.00000 -0.00000
vn 0.00000 1.00000 0.00000
vn 0.00000 -1.00000 -0.00000
vn 0.00000 -1.00000 0.00000
vn 0.00000 -1.00000 -0.00000
vn 1.00000 0.00000 -0.00000
vn 1.00000 0.00000 -0.00000
vn -0.00000 1.00000 0.00000
vn 0.00000 1.00000 0.00000
vn 0.00000 1.00000 0.00000
vn -0.00000 -1.00000 0.00000
vn 0.00000 -1.00000 0.00000
vn 0.00000 -1.00000 0.00000
vn -1.00000 0.00000 0.00000
# 17 normal vertices

usemtl mat1
f 2/4/1 4/3/1 3/2/1 1/1/1
f 4/4/2 6/3/2 5/2/2 3/1/2
f 6/4/3 8/6/3 7/5/3 5/1/3
f 3/2/5 5/2/5 7/5/4 1/1/4
f 8/6/8 6/3/7 4/3/7 2/4/6
f 11/2/2 9/1/2 10/4/2 12/3/2
f 13/2/3 11/1/3 12/4/3 14/3/3
f 15/8/9 7/5/10 8/6/10 16/7/9
f 11/2/11 13/2/13 15/8/12 9/1/11
f 15/8/1 16/7/1 10/4/1 9/1/1
f 16/7/16 14/3/15 12/3/14 10/4/14
f 1/1/4 7/5/4 15/8/12 13/2/13
f 8/6/8 2/4/6 14/3/15 16/7/16
f 13/2/17 14/3/17 2/4/17 1/1/17
# 14 elements

