# Created by Metasequoia

mtllib ramp.mtl

v -0.999994 0.000000 -0.999994
v -0.999994 2.000000 0.999994
v -0.999994 0.000000 0.999994
v 0.999994 2.000000 0.999994
v 0.999994 0.000000 0.999994
v 0.999994 0.000000 -0.999994
# 6 vertices

vt 0.00000 0.00000
vt 1.00000 0.00000
vt 1.00000 1.00000
vt 0.00000 1.00000
# 4 texture vertices

vn 1.00000 0.00000 -0.00000
vn 1.00000 0.00000 -0.00000
vn 1.00000 0.00000 -0.00000
vn -1.00000 0.00000 0.00000
vn -1.00000 0.00000 0.00000
vn -1.00000 0.00000 0.00000
vn 0.00000 0.00000 1.00000
vn 0.00000 0.00000 1.00000
vn 0.00000 -1.00000 0.00000
vn 0.00000 -1.00000 0.00000
vn -0.00000 0.70710 -0.70711
vn -0.00000 0.70710 -0.70711
vn -0.00000 0.70710 -0.70711
vn 0.00000 0.70710 -0.70711
# 14 normal vertices

usemtl mat1
f 4/3/3 5/2/2 6/1/1
f 3/1/6 2/4/5 1/4/4
f 5/2/7 4/3/8 2/4/7
f 3/1/8 5/2/7 2/4/7
f 5/2/9 3/3/10 1/4/9
f 6/1/10 5/2/9 1/4/9
f 6/1/13 1/4/12 2/4/11
f 4/3/14 6/1/13 2/4/11
# 8 elements

